<svg width="24" height="24" viewBox="0 0 24 24" fill="none" xmlns="http://www.w3.org/2000/svg">
<path fill-rule="evenodd" clip-rule="evenodd" d="M3.5 7.5H20.5V16.5H3.5V7.5ZM2 6H3.5H20.5H22V7.5V16.5V18H20.5H3.5H2V16.5V7.5V6ZM13.5 12C13.5 12.8284 12.8284 13.5 12 13.5C11.1716 13.5 10.5 12.8284 10.5 12C10.5 11.1716 11.1716 10.5 12 10.5C12.8284 10.5 13.5 11.1716 13.5 12ZM15 12C15 13.6569 13.6569 15 12 15C10.3431 15 9 13.6569 9 12C9 10.3431 10.3431 9 12 9C13.6569 9 15 10.3431 15 12ZM7.5 12.75H5V11.25H7.5V12.75ZM16.5 12.75H19V11.25H16.5V12.75Z" fill="black"/>
</svg>
